<svg width="100vw" height="100vh" viewBox="0 0 710 500" fill="none" xmlns="http://www.w3.org/2000/svg"><g clip-path="url(#a)"><path d="M710 0H-40v500h750V0Z" fill="#fff"/><path d="M496.78 499.41c.16-29.09 23.88-52.54 52.97-52.38 29.09.16 52.54 23.88 52.38 52.97" stroke="#1D262D" stroke-width="2" stroke-miterlimit="10"/><path d="M588.67 499.92c.12-21.66-17.34-39.31-38.99-39.43-21.66-.12-39.31 17.34-39.43 38.99l78.42.44Z" fill="#8BD2BD"/><path d="M302.42 250 335 268.81 367.58 250v-37.62L335 193.57l-32.58 18.81V250Z" fill="#FFE031"/><path d="M302.42 287.62 335 306.43l32.58-18.81V250L335 231.19 302.42 250v37.62Z" stroke="#1D262D" stroke-width="2" stroke-miterlimit="10"/><path d="m192.54 109-41.01-71.04h82.02L192.54 109Z" fill="#8BD2BD"/><path d="m-20 43 13.83 16.34L7.66 43l13.83 16.34L35.32 43l13.84 16.34L63 43m-83-22 13.83 16.34L7.66 21l13.83 16.34L35.32 21l13.84 16.34L63 21" stroke="#1D262D" stroke-width="4" stroke-miterlimit="10"/><path d="M418.5 177v-13m6.5 6.5h-13 13Zm-6.5-25.5v-13m6.5 6.5h-13 13Zm-6.5-24.5v-13m6.5 6.5h-13 13Z" stroke="#8BD2BD" stroke-miterlimit="10"/><path d="M418.5 177v-13m6.5 6.5h-13 13Zm-6.5-25.5v-13m6.5 6.5h-13 13Zm-6.5-24.5v-13m6.5 6.5h-13 13Z" stroke="#1D262D" stroke-width="2" stroke-miterlimit="10"/><path d="M448.5 177v-13m6.5 6.5h-13 13Zm-6.5-25.5v-13m6.5 6.5h-13 13Zm-6.5-24.5v-13m6.5 6.5h-13 13Z" stroke="#8BD2BD" stroke-miterlimit="10"/><path d="M448.5 177v-13m6.5 6.5h-13 13Zm-6.5-25.5v-13m6.5 6.5h-13 13Zm-6.5-24.5v-13m6.5 6.5h-13 13Z" stroke="#1D262D" stroke-width="2" stroke-miterlimit="10"/><path d="M478.5 145v-13m6.5 6.5h-13 13Zm-6.5-24.5v-13m6.5 6.5h-13 13Z" stroke="#8BD2BD" stroke-miterlimit="10"/><path d="M478.5 145v-13m6.5 6.5h-13 13Zm-6.5-24.5v-13m6.5 6.5h-13 13Z" stroke="#1D262D" stroke-width="2" stroke-miterlimit="10"/><path d="M508.5 145v-13m6.5 6.5h-13 13Zm-6.5-24.5v-13m6.5 6.5h-13 13Z" stroke="#8BD2BD" stroke-miterlimit="10"/><path d="M508.5 145v-13m6.5 6.5h-13 13Zm-6.5-24.5v-13m6.5 6.5h-13 13Z" stroke="#1D262D" stroke-width="2" stroke-miterlimit="10"/><path d="M538.5 145v-13m6.5 6.5h-13 13Zm-6.5-24.5v-13m6.5 6.5h-13 13Z" stroke="#8BD2BD" stroke-miterlimit="10"/><path d="M538.5 145v-13m6.5 6.5h-13 13Zm-6.5-24.5v-13m6.5 6.5h-13 13ZM36.76 423.23H-20v56.76h56.76v-56.76Z" stroke="#1D262D" stroke-width="2" stroke-miterlimit="10"/><path d="M65.14 394.85H8.38v56.76h56.76v-56.76Zm169.48-32.82a4.03 4.03 0 0 1 0-8.06 4.03 4.03 0 0 1 0 8.06Zm0 21.6a4.03 4.03 0 0 1 0-8.06 4.03 4.03 0 0 1 0 8.06Zm0 21.6a4.03 4.03 0 0 1 0-8.06 4.03 4.03 0 0 1 0 8.06Z" fill="#FFE031"/><path d="M234.62 426.82a4.03 4.03 0 0 1 0-8.06 4.03 4.03 0 0 1 0 8.06Z" fill="#1D262D"/><path d="M234.62 448.42a4.03 4.03 0 0 1 0-8.06 4.03 4.03 0 0 1 0 8.06Zm0 21.6a4.03 4.03 0 0 1 0-8.06 4.03 4.03 0 0 1 0 8.06Z" fill="#FFE031"/><path d="M234.62 491.62a4.03 4.03 0 0 1 0-8.06 4.03 4.03 0 0 1 0 8.06Z" fill="#1D262D"/><path d="M217.94 362.03a4.03 4.03 0 1 0 0-8.06 4.03 4.03 0 0 0 0 8.06Z" fill="#FFE031"/><path d="M217.94 383.63a4.03 4.03 0 0 1 0-8.06c2.22 0 4.03 1.8 4.03 4.03 0 2.22-1.81 4.03-4.03 4.03Z" stroke="#FFE031" stroke-miterlimit="10"/><path d="M217.94 405.23a4.03 4.03 0 1 0 0-8.06 4.03 4.03 0 0 0 0 8.06Zm0 21.6a4.03 4.03 0 1 0 0-8.06 4.03 4.03 0 0 0 0 8.06Zm0 21.59a4.03 4.03 0 0 1 0-8.06 4.03 4.03 0 0 1 0 8.06Z" fill="#FFE031"/><path d="M217.94 470.03a4.03 4.03 0 1 0 0-8.06 4.03 4.03 0 0 0 0 8.06Z" stroke="#FFE031" stroke-miterlimit="10"/><path d="M217.94 491.63a4.03 4.03 0 1 0 0-8.06 4.03 4.03 0 0 0 0 8.06Zm-16.69-129.6a4.03 4.03 0 1 0 0-8.06 4.03 4.03 0 0 0 0 8.06Zm0 21.6a4.03 4.03 0 1 1 .002-8.062 4.03 4.03 0 0 1-.002 8.062Zm0 21.6a4.03 4.03 0 1 0 0-8.06 4.03 4.03 0 0 0 0 8.06Zm0 21.6a4.03 4.03 0 1 0 0-8.06 4.03 4.03 0 0 0 0 8.06Z" fill="#FFE031"/><path d="M201.25 448.42a4.03 4.03 0 1 1 .002-8.062 4.03 4.03 0 0 1-.002 8.062Z" fill="#1D262D"/><path d="M201.25 470.03a4.03 4.03 0 1 0 0-8.06 4.03 4.03 0 0 0 0 8.06Zm0 21.6a4.03 4.03 0 1 0 0-8.06 4.03 4.03 0 0 0 0 8.06Zm-16.69-129.6a4.03 4.03 0 1 0 0-8.06 4.03 4.03 0 0 0 0 8.06Z" fill="#FFE031"/><path d="M184.56 383.63a4.03 4.03 0 1 1 .002-8.062 4.03 4.03 0 0 1-.002 8.062Z" fill="#1D262D"/><path d="M184.56 405.23a4.03 4.03 0 1 0 0-8.06 4.03 4.03 0 0 0 0 8.06Z" fill="#FFE031"/><path d="M184.56 426.83a4.03 4.03 0 1 0 0-8.06 4.03 4.03 0 0 0 0 8.06Z" stroke="#FFE031" stroke-miterlimit="10"/><path d="M184.56 448.42a4.03 4.03 0 1 1 .002-8.062 4.03 4.03 0 0 1-.002 8.062Zm0 21.61a4.03 4.03 0 1 0 0-8.06 4.03 4.03 0 0 0 0 8.06Zm0 21.6a4.03 4.03 0 1 0 0-8.06 4.03 4.03 0 0 0 0 8.06Z" fill="#FFE031"/><path d="M167.88 362.03a4.03 4.03 0 1 0 0-8.06 4.03 4.03 0 0 0 0 8.06Z" stroke="#FFE031" stroke-miterlimit="10"/><path d="M167.88 383.63a4.03 4.03 0 0 1 0-8.06c2.22 0 4.03 1.8 4.03 4.03 0 2.22-1.81 4.03-4.03 4.03Zm0 21.6a4.03 4.03 0 1 0 0-8.06 4.03 4.03 0 0 0 0 8.06Zm0 21.6a4.03 4.03 0 1 0 0-8.06 4.03 4.03 0 0 0 0 8.06Zm0 21.59a4.03 4.03 0 0 1 0-8.06 4.03 4.03 0 0 1 0 8.06Zm0 21.61a4.03 4.03 0 1 0 0-8.06 4.03 4.03 0 0 0 0 8.06Zm0 21.6a4.03 4.03 0 1 0 0-8.06 4.03 4.03 0 0 0 0 8.06Zm346.05-319.57a4.03 4.03 0 1 0 0-8.06 4.03 4.03 0 0 0 0 8.06Zm25.62-4.03a4.03 4.03 0 0 1-8.06 0 4.03 4.03 0 0 1 8.06 0Zm-25.62 20.71a4.03 4.03 0 1 0 0-8.06 4.03 4.03 0 0 0 0 8.06Z" fill="#FFE031"/><path d="M539.55 184.71a4.03 4.03 0 1 1-4.03-4.03c2.23.01 4.03 1.81 4.03 4.03Z" stroke="#FFE031" stroke-miterlimit="10"/><path d="M513.93 205.43a4.03 4.03 0 1 0 0-8.06 4.03 4.03 0 0 0 0 8.06Z" fill="#1D262D"/><path d="M539.55 201.4a4.03 4.03 0 1 1-8.062-.002 4.03 4.03 0 0 1 8.062.002Z" stroke="#FFE031" stroke-miterlimit="10"/><path d="M513.93 222.12a4.03 4.03 0 1 0 0-8.06 4.03 4.03 0 0 0 0 8.06Z" fill="#1D262D"/><path d="M539.55 218.09a4.03 4.03 0 0 1-8.06 0 4.03 4.03 0 0 1 8.06 0Z" stroke="#FFE031" stroke-miterlimit="10"/><path d="M517.95 234.78a4.03 4.03 0 0 1-8.06 0 4.03 4.03 0 0 1 8.06 0Z" fill="#1D262D"/><path d="M539.55 234.78a4.03 4.03 0 0 1-8.06 0 4.03 4.03 0 0 1 8.06 0Z" stroke="#FFE031" stroke-miterlimit="10"/><path d="M517.95 251.46a4.03 4.03 0 0 1-8.06 0 4.03 4.03 0 0 1 8.06 0Z" fill="#FFE031"/><path d="M539.55 251.46a4.03 4.03 0 0 1-8.06 0 4.03 4.03 0 0 1 8.06 0Z" stroke="#FFE031" stroke-miterlimit="10"/><path d="M517.95 268.15a4.03 4.03 0 0 1-8.06 0 4.03 4.03 0 0 1 8.06 0Zm21.6 0a4.03 4.03 0 0 1-8.06 0 4.03 4.03 0 0 1 8.06 0Z" fill="#FFE031"/><path d="M324.12 322.73h-5.33v21.83h5.33v-21.83Zm13.54 0h-5.33v21.83h5.33v-21.83Zm13.54 0h-5.33v21.83h5.33v-21.83Zm-27.08 31.09h-5.33v21.83h5.33v-21.83Zm13.54 0h-5.33v21.83h5.33v-21.83Zm0 31.08h-5.33v21.83h5.33V384.9Zm13.54 0h-5.33v21.83h5.33V384.9Zm-27.08 31.09h-5.33v21.83h5.33v-21.83Zm27.08 0h-5.33v21.83h5.33v-21.83Zm-27.08 31.09h-5.33v21.83h5.33v-21.83Zm13.54 0h-5.33v21.83h5.33v-21.83Zm-13.54 31.09h-5.33V500h5.33v-21.83Zm13.54 0h-5.33V500h5.33v-21.83Zm13.54 0h-5.33V500h5.33v-21.83Zm-5.322-300.9h5.33v-21.83h-5.33v21.83Zm-13.538 0h5.33v-21.83h-5.33v21.83Zm-13.538 0h5.33v-21.83h-5.33v21.83Zm27.076-31.085h5.33v-21.83h-5.33v21.83Zm-13.538 0h5.33v-21.83h-5.33v21.83Zm0-31.086h5.33v-21.83h-5.33v21.83Zm-13.538 0h5.33v-21.83h-5.33v21.83Zm27.076-31.095h5.33v-21.83h-5.33v21.83Zm-27.076 0h5.33v-21.83h-5.33v21.83Zm27.076-31.086h5.33v-21.83h-5.33v21.83Zm-13.538 0h5.33v-21.83h-5.33v21.83Zm13.538-31.085h5.33V.003h-5.33v21.83Zm-13.538 0h5.33V.003h-5.33v21.83Zm-13.538 0h5.33V.003h-5.33v21.83Z" fill="#1D262D"/><path d="M710 342.67c-51.18 0-92.67-41.49-92.67-92.67s41.49-92.67 92.67-92.67" fill="#FFE031"/><path d="M606.68 250c0-57.06 46.26-103.32 103.32-103.32" stroke="#1D262D" stroke-miterlimit="10"/><path d="M710 353.32c-57.06 0-103.32-46.26-103.32-103.32" stroke="#1D262D" stroke-width="4" stroke-miterlimit="10"/><path d="M606.68 250c0-57.06 46.26-103.32 103.32-103.32" stroke="#1D262D" stroke-miterlimit="10"/><path d="M710 353.32c-57.06 0-103.32-46.26-103.32-103.32" stroke="#1D262D" stroke-width="4" stroke-miterlimit="10"/><path d="M597.14 250c0-62.33 50.53-112.86 112.86-112.86" stroke="#1D262D" stroke-miterlimit="10"/><path d="M710 362.86c-62.33 0-112.86-50.53-112.86-112.86" stroke="#1D262D" stroke-width="4" stroke-miterlimit="10"/><path d="M597.14 250c0-62.33 50.53-112.86 112.86-112.86" stroke="#1D262D" stroke-miterlimit="10"/><path d="M710 362.86c-62.33 0-112.86-50.53-112.86-112.86" stroke="#1D262D" stroke-width="4" stroke-miterlimit="10"/><path d="M587.64 250c0-67.58 54.78-122.36 122.36-122.36" stroke="#1D262D" stroke-miterlimit="10"/><path d="M710 372.36c-67.58 0-122.36-54.78-122.36-122.36" stroke="#1D262D" stroke-width="4" stroke-miterlimit="10"/><path d="M577.33 250c0-73.27 59.4-132.67 132.67-132.67" stroke="#1D262D" stroke-miterlimit="10"/><path d="M710 382.67c-73.27 0-132.67-59.4-132.67-132.67" stroke="#1D262D" stroke-width="4" stroke-miterlimit="10"/><path d="M701 9.87H569.5v30.59H701V9.87Z" stroke="#1D262D" stroke-width="2" stroke-miterlimit="10"/><path d="M710 0H578.5v30.59H710V0Z" fill="#FFE031"/><path d="m531.974 297.3-7.248-7.248-7.248 7.248 7.248 7.247 7.248-7.247Z" fill="#1D262D"/><path d="m531.972 322.388-7.248-7.247-7.248 7.247 7.248 7.248 7.248-7.248Zm-.003 25.089-7.247-7.248-7.248 7.248 7.248 7.248 7.247-7.248Z" fill="#8BD2BD"/><path d="m531.974 372.559-7.247-7.248-7.248 7.248 7.248 7.248 7.247-7.248Z" fill="#1D262D"/><path d="M-8.03 132.57c21.97 4.99 38.36 24.64 38.36 48.11 0 25.38-19.16 46.28-43.8 49.03" stroke="#1D262D" stroke-width="3" stroke-miterlimit="10" stroke-linecap="round"/><path d="M-5.7 118.06C23.27 124.19 45 149.9 45 180.69c0 33.09-25.11 60.32-57.32 63.67" stroke="#1D262D" stroke-width="3" stroke-miterlimit="10" stroke-linecap="round"/><path d="M-9.98 146.98c14.89 3.98 25.86 17.56 25.86 33.71 0 17.72-13.21 32.36-30.33 34.59" stroke="#1D262D" stroke-width="3" stroke-miterlimit="10" stroke-linecap="round"/><path d="M-11.99 161.41c7.87 2.87 13.49 10.41 13.49 19.28 0 10.11-7.32 18.51-16.94 20.2" stroke="#1D262D" stroke-width="3" stroke-miterlimit="10" stroke-linecap="round"/><path d="M92 125.66h23.22v23.22L92 125.66Zm0 46.6h23.22v23.23L92 172.26Z" fill="#FFE031"/><path d="M92 149.03h23.22v23.23L92 149.03Z" fill="#1D262D"/><path d="m168.41 208.7 51.44-51.45m-38.73 51.45 51.45-51.45" stroke="#1D262D" stroke-width="2" stroke-miterlimit="10"/><path d="m193.84 208.7 51.44-51.45" stroke="#8BD2BD" stroke-width="2" stroke-miterlimit="10"/><path d="M206.55 208.7 258 157.25" stroke="#FFE031" stroke-width="2" stroke-miterlimit="10"/><path d="M419.25 365.36v114.95" stroke="#8BD2BD" stroke-width="2" stroke-miterlimit="10"/><path d="M428.5 350.93v129.38" stroke="#FFE031" stroke-width="2" stroke-miterlimit="10"/><path d="M437.75 336.51v143.8M447 322.09v158.22" stroke="#1D262D" stroke-width="2" stroke-miterlimit="10"/><path d="M622.14 406.67c0 3.02-2.45 5.47-5.47 5.47-3.02 0-5.47-2.45-5.47-5.47 0-3.02 2.45-5.47 5.47-5.47 3.02 0 5.47 2.45 5.47 5.47Zm16.99 16.99c0 3.02-2.45 5.47-5.47 5.47-3.02 0-5.47-2.45-5.47-5.47 0-3.02 2.45-5.47 5.47-5.47 3.02 0 5.47 2.45 5.47 5.47Z" fill="#1D262D"/><path d="M656.12 440.65c0 3.02-2.45 5.47-5.47 5.47-3.02 0-5.47-2.45-5.47-5.47 0-3.02 2.45-5.47 5.47-5.47 3.03 0 5.47 2.45 5.47 5.47Z" fill="#8BD2BD"/><path d="M673.12 457.65c0 3.02-2.45 5.47-5.47 5.47-3.02 0-5.47-2.45-5.47-5.47 0-3.02 2.45-5.47 5.47-5.47 3.02 0 5.47 2.44 5.47 5.47Z" fill="#FFE031"/><path d="M13.85 300H-40v36h53.85v-36ZM485 0h-73v12h73V0Zm0 30h-73v12h73V30Z" fill="#8BD2BD"/><path d="M628.41 75.45 606.3 97.57m22.11 0L606.3 75.45" stroke="#1D262D" stroke-width="2" stroke-miterlimit="10"/><path d="M437.53 269.47c10.75 0 19.47-8.72 19.47-19.47 0-10.75-8.72-19.47-19.47-19.47v38.94Z" fill="#8BD2BD"/><path d="M103.61 269.12H91.48v12.13h12.13v-12.13Zm22.44 0h-12.13v12.13h12.13v-12.13Zm22.43 0h-12.13v12.13h12.13v-12.13Zm22.44 0h-12.13v12.13h12.13v-12.13Zm22.43 0h-12.13v12.13h12.13v-12.13Zm22.43 0h-12.13v12.13h12.13v-12.13Zm22.44 0h-12.13v12.13h12.13v-12.13Zm-134.61 19.79H91.48v12.13h12.13v-12.13Zm22.44 0h-12.13v12.13h12.13v-12.13Zm22.43 0h-12.13v12.13h12.13v-12.13Zm22.44 0h-12.13v12.13h12.13v-12.13Zm22.43 0h-12.13v12.13h12.13v-12.13Zm22.43 0h-12.13v12.13h12.13v-12.13Zm22.44 0h-12.13v12.13h12.13v-12.13Z" stroke="#8BD2BD" stroke-width="2" stroke-miterlimit="10"/><path d="M91.48 259.12h12.13m10.31 0h12.12" stroke="#8BD2BD" stroke-width="2" stroke-miterlimit="10" stroke-linecap="square"/></g><defs><clipPath id="a"><path fill="#fff" d="M0 0h710v500H0z"/></clipPath></defs></svg>